<svg width="40" height="18" viewBox="0 0 40 18" fill="none" xmlns="http://www.w3.org/2000/svg">
<path d="M31.0002 0.0333252C28.6002 0.0333252 26.3336 0.966658 24.7169 2.58333L13.0002 12.9833C11.9336 14.05 10.5169 14.6333 9.00024 14.6333C5.88358 14.6333 3.35024 12.1167 3.35024 8.99999C3.35024 5.88333 5.88358 3.36666 9.00024 3.36666C10.5169 3.36666 11.9336 3.94999 13.0669 5.08333L14.9502 6.74999L17.4669 4.51666L15.3669 2.66666C13.6669 0.966659 11.4002 0.0333252 9.00024 0.0333252C4.03358 0.0333252 0.000244141 4.06666 0.000244141 8.99999C0.000244141 13.9333 4.03358 17.9667 9.00024 17.9667C11.4002 17.9667 13.6669 17.0333 15.2836 15.4167L27.0002 5.01666C28.0669 3.94999 29.4836 3.36666 31.0002 3.36666C34.1169 3.36666 36.6502 5.88333 36.6502 8.99999C36.6502 12.1167 34.1169 14.6333 31.0002 14.6333C29.5002 14.6333 28.0669 14.05 26.9336 12.9167L25.0336 11.2333L22.5169 13.4667L24.6336 15.3333C26.3336 17.0167 28.5836 17.95 31.0002 17.95C35.9669 17.95 40.0002 13.9333 40.0002 8.98333C40.0002 4.03333 35.9669 0.0333252 31.0002 0.0333252V0.0333252Z" fill="white"/>
</svg>
