<svg width="30" height="30" viewBox="0 0 30 30" fill="none" xmlns="http://www.w3.org/2000/svg">
<path d="M14.9995 8.99951V14.9995L19.4995 19.4995M28.4995 14.9995C28.4995 16.7724 28.1503 18.5278 27.4719 20.1657C26.7934 21.8036 25.799 23.2919 24.5455 24.5455C23.2919 25.799 21.8036 26.7935 20.1657 27.4719C18.5278 28.1503 16.7724 28.4995 14.9995 28.4995C13.2267 28.4995 11.4712 28.1503 9.83329 27.4719C8.19539 26.7935 6.70716 25.799 5.45357 24.5455C4.19998 23.2919 3.20558 21.8036 2.52714 20.1657C1.8487 18.5278 1.49951 16.7724 1.49951 14.9995C1.49951 11.4191 2.92183 7.98531 5.45357 5.45357C7.98531 2.92183 11.4191 1.49951 14.9995 1.49951C18.5799 1.49951 22.0137 2.92183 24.5455 5.45357C27.0772 7.98531 28.4995 11.4191 28.4995 14.9995Z" stroke="white" stroke-width="2" stroke-linecap="round" stroke-linejoin="round"/>
</svg>
