<svg width="29" height="29" viewBox="0 0 29 29" fill="none" xmlns="http://www.w3.org/2000/svg">
<path d="M26.583 19.2917V18.5625C26.583 16.55 24.9497 14.9167 22.9372 14.9167C20.9247 14.9167 19.2913 16.55 19.2913 18.5625V19.2917C18.4893 19.2917 17.833 19.9479 17.833 20.75V26.5833C17.833 27.3854 18.4893 28.0417 19.2913 28.0417H26.583C27.3851 28.0417 28.0413 27.3854 28.0413 26.5833V20.75C28.0413 19.9479 27.3851 19.2917 26.583 19.2917ZM25.1247 19.2917H20.7497V18.5625C20.7497 17.3521 21.7268 16.375 22.9372 16.375C24.1476 16.375 25.1247 17.3521 25.1247 18.5625V19.2917ZM6.16634 6.16668C6.16634 2.94376 8.77676 0.333344 11.9997 0.333344C15.2226 0.333344 17.833 2.94376 17.833 6.16668C17.833 9.38959 15.2226 12 11.9997 12C8.77676 12 6.16634 9.38959 6.16634 6.16668ZM14.9163 23.6667H0.333008V20.75C0.333008 17.5271 5.55384 14.9167 11.9997 14.9167C13.8518 14.9167 15.5872 15.1354 17.1476 15.5146C16.8413 16.1125 16.5934 16.7396 16.4768 17.4104C15.5288 18.2125 14.9163 19.4083 14.9163 20.75V23.6667Z" fill="white"/>
</svg>
