<svg width="28" height="31" viewBox="0 0 28 31" fill="none" xmlns="http://www.w3.org/2000/svg">
<path d="M24.4995 27.4995V10.9995H3.49951V27.4995H24.4995ZM19.9995 0.499512H22.9995V3.49951H24.4995C25.2952 3.49951 26.0582 3.81558 26.6208 4.37819C27.1834 4.9408 27.4995 5.70386 27.4995 6.49951V27.4995C27.4995 28.2952 27.1834 29.0582 26.6208 29.6208C26.0582 30.1834 25.2952 30.4995 24.4995 30.4995H3.49951C1.83451 30.4995 0.499512 29.1495 0.499512 27.4995V6.49951C0.499512 4.83451 1.83451 3.49951 3.49951 3.49951H4.99951V0.499512H7.99951V3.49951H19.9995V0.499512ZM6.49951 13.9995H9.49951V16.9995H6.49951V13.9995ZM18.4995 13.9995H21.4995V16.9995H18.4995V13.9995ZM12.4995 19.9995H15.4995V22.9995H12.4995V19.9995ZM18.4995 19.9995H21.4995V22.9995H18.4995V19.9995Z" fill="white"/>
</svg>
