<svg width="28" height="16" viewBox="0 0 28 16" fill="none" xmlns="http://www.w3.org/2000/svg">
<path d="M27.4995 12.4995L6.49951 12.4995L6.49951 15.4995L27.4995 15.4995L27.4995 12.4995ZM27.4995 6.49951L6.49951 6.49951L6.49951 9.49951L27.4995 9.49951L27.4995 6.49951ZM27.4995 0.49951L6.49951 0.499512L6.49951 3.49951L27.4995 3.49951L27.4995 0.49951ZM3.49951 0.499512L0.49951 0.499512L0.499511 3.49951L3.49951 3.49951L3.49951 0.499512ZM3.49951 15.4995L3.49951 12.4995L0.499511 12.4995L0.499512 15.4995L3.49951 15.4995ZM3.49951 6.49951L0.499511 6.49951L0.499511 9.49951L3.49951 9.49951L3.49951 6.49951Z" fill="white"/>
</svg>
