<svg width="34" height="20" viewBox="0 0 34 20" fill="none" xmlns="http://www.w3.org/2000/svg">
<path d="M33.5 15.5L7.83333 15.5L7.83333 19.1667L33.5 19.1667L33.5 15.5ZM33.5 8.16666L7.83333 8.16666L7.83333 11.8333L33.5 11.8333L33.5 8.16666ZM33.5 0.833324L7.83333 0.833327L7.83333 4.49999L33.5 4.49999L33.5 0.833324ZM4.16666 0.833327L0.499998 0.833327L0.499999 4.49999L4.16666 4.49999L4.16666 0.833327ZM4.16667 19.1667L4.16667 15.5L0.5 15.5L0.5 19.1667L4.16667 19.1667ZM4.16667 8.16666L0.499999 8.16666L0.499999 11.8333L4.16667 11.8333L4.16667 8.16666Z" fill="white"/>
</svg>
