<svg width="24" height="20" viewBox="0 0 24 20" fill="none" xmlns="http://www.w3.org/2000/svg">
<path d="M23.6667 4.66667C23.6667 5.77124 22.7713 6.66668 21.6667 6.66668H2.33338C1.22881 6.66668 0.333374 5.77125 0.333374 4.66668V2.83334C0.333374 1.72878 1.2288 0.833344 2.33337 0.833344H21.6667C22.7713 0.833344 23.6667 1.72877 23.6667 2.83334V4.66667ZM23.6667 17.1667C23.6667 18.2712 22.7713 19.1667 21.6667 19.1667H2.33338C1.22881 19.1667 0.333374 18.2712 0.333374 17.1667V15.3333C0.333374 14.2288 1.2288 13.3333 2.33337 13.3333H21.6667C22.7713 13.3333 23.6667 14.2288 23.6667 15.3333V17.1667Z" fill="white"/>
</svg>
